#!OML:ASF F:\twosubjects\two\Thursday\Session 1\justin.ASF
:FULLY-SPECIFIED
:DEGREES
677
root 7.15821 15.2568 -13.2494 26.7358 38.155 8.02171
lowerback 29.7744 1.95949 -0.119006
upperback 5.29212 2.79731 1.25119
thorax -10.5108 1.38947 0.422159
lowerneck -16.7123 -13.3561 -18.0372
upperneck 11.1782 -16.6132 16.2117
head 9.18749 -7.38202 5.93746
rclavicle 2.06736e-014 -3.65764e-014
rhumerus 25.8973 -23.7627 -79.0613
rradius 123.988
rwrist -75.1759
rhand -31.6956 14.8827
rfingers 7.12502
rthumb -4.95477 -15.0394
lclavicle 2.06736e-014 -3.65764e-014
lhumerus 28.7415 -55.2998 88.9297
lradius 58.3659
lwrist -8.56204
lhand -15.5582 -305.478
lfingers 7.12502
lthumb 10.6263 -275.767
rfemur -57.474 -30.9849 -1.05264
rtibia 57.5472
rfoot -11.2575 -6.25036
rtoes -29.6627
lfemur -41.3124 0.600878 6.40196
ltibia 27.752
lfoot -14.2 -4.10014
ltoes -34.1489
678
root 7.19897 15.2537 -13.2692 27.086 37.1886 8.53625
lowerback 29.8844 2.03949 -0.242054
upperback 4.99141 2.9046 1.64408
thorax -10.9432 1.44397 0.891478
lowerneck -17.266 -13.2251 -18.618
upperneck 11.6164 -16.0137 15.0822
head 9.24981 -7.18797 5.72692
rclavicle 6.04305e-014 -7.15625e-014
rhumerus 26.0315 -22.2092 -78.6243
rradius 124.32
rwrist -74.2257
rhand -31.4119 14.4068
rfingers 7.12502
rthumb -4.68087 -15.5214
lclavicle 6.04305e-014 -7.15625e-014
lhumerus 28.4359 -54.6166 89.2816
lradius 58.1835
lwrist -8.84277
lhand -15.5901 -306.046
lfingers 7.12502
lthumb 10.5956 -276.333
rfemur -57.7896 -30.9346 -1.62053
rtibia 57.2344
rfoot -10.8913 -5.70737
rtoes -30.1787
lfemur -41.2748 0.820205 5.59259
ltibia 28.4512
lfoot -14.5217 -3.94725
ltoes -32.5415
679
root 7.24139 15.2538 -13.2835 27.3927 36.392 9.14164
lowerback 29.6486 2.04348 -0.32713
upperback 5.03768 2.93682 2.08689
thorax -10.8027 1.47139 1.43894
lowerneck -18.0039 -13.1865 -19.2834
upperneck 12.033 -15.4972 14.1232
head 9.38159 -7.02194 5.56149
rclavicle 6.99722e-014 -4.77083e-014
rhumerus 27.0862 -20.5516 -77.3646
rradius 124.821
rwrist -73.9707
rhand -32.2032 14.0403
rfingers 7.12502
rthumb -5.4449 -15.8697
lclavicle 6.99722e-014 -4.77083e-014
lhumerus 29.0435 -54.1491 88.6968
lradius 58.3751
lwrist -9.66716
lhand -15.3997 -306.093
lfingers 7.12502
lthumb 10.7793 -276.39
rfemur -57.8654 -31.0505 -2.30757
rtibia 56.9184
rfoot -10.5577 -5.15014
rtoes -30.6829
lfemur -41.2321 1.11634 4.60028
ltibia 29.1038
lfoot -14.9734 -3.68308
ltoes -32.1353
680
root 7.27888 15.2494 -13.299 27.5225 35.855 9.41298
lowerback 29.1928 1.92481 0.10456
upperback 5.2546 2.9622 2.50027
thorax -10.3293 1.47881 1.66173
lowerneck -18.53 -13.1351 -19.8579
upperneck 12.1217 -15.0194 13.3702
head 9.38737 -6.86877 5.4535
rclavicle 1.43125e-014 -3.33958e-014
rhumerus 28.041 -19.4313 -77.287
rradius 124.964
rwrist -73.7595
rhand -32.1851 13.7064
rfingers 7.12502
rthumb -5.42744 -16.2041
lclavicle 1.43125e-014 -3.33958e-014
lhumerus 30.0966 -53.8054 87.7728
lradius 58.5928
lwrist -9.89706
lhand -15.1181 -305.753
lfingers 7.12502
lthumb 11.0509 -276.064
rfemur -57.9166 -31.0979 -2.66693
rtibia 56.6236
rfoot -10.2126 -4.84596
rtoes -30.9275
lfemur -41.3084 1.60747 3.8928
ltibia 29.6587
lfoot -15.2894 -3.71831
ltoes -32.6117
681
root 7.3049 15.2447 -13.3157 27.2995 35.3062 9.1734
lowerback 29.8019 1.87469 0.692402
upperback 4.82353 3.14178 2.89929
thorax -11.1334 1.5411 1.69234
lowerneck -18.6373 -12.9142 -20.4023
upperneck 12.4886 -14.4674 12.8613
head 9.43097 -6.67852 5.45953
rclavicle 1.59028e-015 -4.6118e-014
rhumerus 27.7363 -18.2951 -77.4317
rradius 125.093
rwrist -73.2337
rhand -31.9437 13.5739
rfingers 7.12502
rthumb -5.19441 -16.3424
lclavicle 1.59028e-015 -4.6118e-014
lhumerus 29.2824 -53.3631 88.4166
lradius 58.6708
lwrist -9.34987
lhand -15.0157 -305.876
lfingers 7.12502
lthumb 11.1496 -276.192
rfemur -58.0309 -30.6855 -2.63621
rtibia 56.3859
rfoot -9.85083 -4.82031
rtoes -31.0353
lfemur -41.2683 2.08949 3.75997
ltibia 30.1388
lfoot -15.1929 -4.02174
ltoes -32.8872
682
root 7.33136 15.2416 -13.3244 27.0473 34.5842 9.02764
lowerback 30.3442 1.99402 0.9299
upperback 4.47262 3.43469 3.26387
thorax -11.8367 1.66577 1.8461
lowerneck -18.5725 -12.6684 -21.0611
upperneck 12.7791 -13.9615 12.7619
head 9.47391 -6.48775 5.62557
rclavicle 7.95139e-015 -5.24792e-014
rhumerus 27.8253 -17.1415 -76.285
rradius 125.543
rwrist -73.0295
rhand -32.8103 13.5541
rfingers 7.12502
rthumb -6.03107 -16.34
lclavicle 7.95139e-015 -5.24792e-014
lhumerus 28.3988 -52.8981 89.0915
lradius 59.0367
lwrist -8.21493
lhand -14.7201 -305.842
lfingers 7.12502
lthumb 11.4347 -276.174
rfemur -58.1618 -30.2775 -2.67651
rtibia 56.1958
rfoot -9.5851 -4.57859
rtoes -31.7926
lfemur -41.0186 2.53297 3.53527
ltibia 30.588
lfoot -15.2384 -4.06651
ltoes -33.5818
683
root 7.36753 15.2342 -13.3305 27.1277 33.8276 9.26262
lowerback 30.5991 2.20879 1.09285
upperback 3.87937 3.8102 3.60493
thorax -11.8771 1.80361 1.81218
lowerneck -18.7265 -12.5885 -21.0618
upperneck 13.0366 -13.6574 11.9157
head 9.46187 -6.41916 5.37522
rclavicle -3.81667e-014 4.92986e-014
rhumerus 27.8436 -16.5501 -75.3353
rradius 126.432
rwrist -72.914
rhand -33.1531 12.8528
rfingers 7.12502
rthumb -6.36205 -17.0316
lclavicle -3.81667e-014 4.92986e-014
lhumerus 27.9664 -52.8187 89.573
lradius 59.4304
lwrist -6.7557
lhand -14.813 -305.844
lfingers 7.12502
lthumb 11.3451 -276.171
rfemur -58.3819 -30.2242 -2.94252
rtibia 56.0364
rfoot -9.40138 -4.12676
rtoes -33.7163
lfemur -40.9177 3.08494 2.85186
ltibia 31.0436
lfoot -15.7938 -3.56837
ltoes -35.2013
684
root 7.40633 15.2282 -13.3388 27.2546 33.2245 9.51525
lowerback 30.1388 2.03884 1.90804
upperback 4.39693 3.79322 3.29566
thorax -11.7732 1.78349 1.18127
lowerneck -18.5583 -12.3474 -19.8285
upperneck 12.3432 -13.465 10.9841
head 8.99227 -6.35517 4.90749
rclavicle -2.8625e-014 -5.56597e-014
rhumerus 28.3659 -15.9901 -75.5411
rradius 127.18
rwrist -72.5829
rhand -33.1498 12.5526
rfingers 7.12502
rthumb -6.35884 -17.3319
lclavicle -2.8625e-014 -5.56597e-014
lhumerus 28.6687 -52.9925 88.2605
lradius 59.813
lwrist -5.3633
lhand -15.3063 -306.16
lfingers 7.12502
lthumb 10.8693 -276.462
rfemur -58.5431 -30.2585 -3.22752
rtibia 55.9082
rfoot -9.30048 -3.74727
rtoes -35.6901
lfemur -40.9554 3.56023 2.21299
ltibia 31.5809
lfoot -16.3626 -3.14618
ltoes -36.2462
685
root 7.43978 15.2282 -13.3421 27.429 32.6375 9.74521
lowerback 30.4306 2.17105 2.0622
upperback 3.80199 4.07997 3.69406
thorax -11.8397 1.88438 1.28862
lowerneck -18.6206 -12.2545 -19.5942
upperneck 12.2188 -13.2114 10.1326
head 8.83348 -6.29869 4.61992
rclavicle 5.725e-014 -2.8625e-014
rhumerus 28.4321 -15.2673 -74.7886
rradius 127.731
rwrist -72.1695
rhand -33.1501 12.4825
rfingers 7.12502
rthumb -6.35915 -17.4021
lclavicle 5.725e-014 -2.8625e-014
lhumerus 28.0756 -52.8314 88.8495
lradius 60.3371
lwrist -4.74793
lhand -15.1025 -306.448
lfingers 7.12502
lthumb 11.0659 -276.76
rfemur -58.8478 -30.3478 -3.41522
rtibia 55.8277
rfoot -9.2694 -3.31819
rtoes -36.6869
lfemur -41.052 3.94146 1.67728
ltibia 32.2186
lfoot -16.5668 -3.51106
ltoes -35.0348
686
root 7.4732 15.2147 -13.3435 27.6355 32.047 9.94577
lowerback 30.6306 2.34418 2.31501
upperback 3.5923 4.42888 3.91961
thorax -12.1722 2.02613 1.25106
lowerneck -18.9101 -12.2575 -19.3098
upperneck 12.3698 -13.0808 9.31677
head 8.8288 -6.29095 4.30615
rclavicle -4.77083e-014 1.59028e-015
rhumerus 28.5491 -14.8746 -73.9816
rradius 128.184
rwrist -72.1773
rhand -33.2693 12.3741
rfingers 7.12502
rthumb -6.4742 -17.5069
lclavicle -4.77083e-014 1.59028e-015
lhumerus 27.3519 -52.82 89.5694
lradius 60.84
lwrist -4.65722
lhand -14.8964 -306.778
lfingers 7.12502
lthumb 11.2646 -277.1
rfemur -59.3786 -30.6609 -3.4069
rtibia 55.8169
rfoot -9.28221 -2.73388
rtoes -37.4476
lfemur -41.2823 4.52084 1.0647
ltibia 32.9009
lfoot -16.6739 -3.78656
ltoes -34.8151
687
root 7.51291 15.1923 -13.3491 27.7321 31.6124 10.0892
lowerback 30.6186 2.31693 2.93287
upperback 3.60198 4.59437 3.93135
thorax -12.1094 2.07347 0.871335
lowerneck -19.0338 -12.1502 -18.6961
upperneck 12.1335 -12.9749 8.83751
head 8.67282 -6.25096 4.06912
rclavicle 5.40694e-014 3.18055e-015
rhumerus 29.0995 -14.5398 -73.6583
rradius 128.633
rwrist -72.4654
rhand -33.5102 11.9083
rfingers 7.12502
rthumb -6.70675 -17.9655
lclavicle 5.40694e-014 3.18055e-015
lhumerus 27.5413 -52.9241 89.2126
lradius 61.2293
lwrist -4.24922
lhand -15.3307 -306.63
lfingers 7.12502
lthumb 10.8458 -276.93
rfemur -59.7257 -30.9199 -3.5539
rtibia 55.8348
rfoot -9.26733 -2.10706
rtoes -36.5194
lfemur -41.5204 5.03328 0.555836
ltibia 33.5785
lfoot -16.9075 -3.96265
ltoes -34.7729
688
root 7.55055 15.1816 -13.3476 27.7948 31.1034 10.3008
lowerback 31.0558 2.24708 3.21672
upperback 3.2898 4.64246 3.97423
thorax -12.6334 2.065 0.7247
lowerneck -19.0301 -11.8988 -18.5502
upperneck 12.233 -12.6405 8.64004
head 8.6362 -6.1073 4.03989
rclavicle 6.52014e-014 2.06736e-014
rhumerus 29.1083 -13.8403 -73.5167
rradius 129.51
rwrist -72.7338
rhand -33.5349 10.0289
rfingers 7.12502
rthumb -6.73061 -19.8442
lclavicle 6.52014e-014 2.06736e-014
lhumerus 26.4466 -52.4622 89.906
lradius 61.7025
lwrist -3.82396
lhand -15.2942 -306.474
lfingers 7.12502
lthumb 10.881 -276.776
rfemur -59.866 -30.8519 -3.94508
rtibia 55.8218
rfoot -8.97747 -1.93548
rtoes -33.4438
lfemur -41.5441 5.24 0.132525
ltibia 34.1621
lfoot -17.1335 -4.23022
ltoes -33.963
689
root 7.5823 15.1755 -13.3382 27.8448 30.4662 10.624
lowerback 31.0938 2.30865 3.16436
upperback 3.38063 4.71463 4.08195
thorax -12.5625 2.10388 0.840922
lowerneck -19.2112 -11.8075 -18.3345
upperneck 12.1983 -12.465 8.25852
head 8.58744 -6.04489 3.90188
rclavicle -9.70069e-014 1.90833e-014
rhumerus 29.4103 -12.9205 -72.986
rradius 129.948
rwrist -72.5307
rhand -33.7694 9.86261
rfingers 7.12502
rthumb -6.95699 -20.0031
lclavicle -9.70069e-014 1.90833e-014
lhumerus 25.9901 -52.0119 90.0629
lradius 62.4092
lwrist -3.68455
lhand -14.9861 -307.072
lfingers 7.12502
lthumb 11.1781 -277.39
rfemur -59.9123 -30.6623 -4.35316
rtibia 55.783
rfoot -8.76498 -2.11566
rtoes -32.3146
lfemur -41.3732 5.37969 -0.394931
ltibia 34.6105
lfoot -17.3693 -4.13083
ltoes -34.478
690
root 7.61215 15.1777 -13.3291 27.7799 29.9376 10.8195
lowerback 31.3489 2.33469 3.25252
upperback 3.4435 4.80133 4.18286
thorax -12.604 2.13845 0.860976
lowerneck -19.7107 -11.7376 -17.8622
upperneck 12.3869 -12.3242 7.79615
head 8.65091 -5.98992 3.67918
rclavicle -5.56597e-014 -4.29375e-014
rhumerus 29.7136 -12.2572 -72.3748
rradius 130.368
rwrist -72.6264
rhand -33.8875 9.3622
rfingers 7.12502
rthumb -7.07097 -20.4997
lclavicle -5.56597e-014 -4.29375e-014
lhumerus 26.0624 -51.8507 89.6228
lradius 63.0721
lwrist -3.44721
lhand -14.6631 -307.551
lfingers 7.12502
lthumb 11.4896 -277.886
rfemur -59.8249 -30.3641 -4.71281
rtibia 55.7339
rfoot -8.91252 -2.07226
rtoes -35.9091
lfemur -41.0926 5.49214 -0.758241
ltibia 34.9515
lfoot -17.3964 -4.28347
ltoes -33.2988
691
root 7.64078 15.1792 -13.3181 27.7826 29.378 10.9431
lowerback 31.5077 2.44168 3.32945
upperback 3.39674 4.96713 4.15326
thorax -12.716 2.20292 0.717511
lowerneck -19.5188 -11.593 -17.137
upperneck 11.987 -12.3448 7.74099
head 8.43393 -5.97231 3.56548
rclavicle 2.06736e-014 -3.49861e-014
rhumerus 29.6518 -11.6898 -71.8221
rradius 130.857
rwrist -72.7901
rhand -34.1003 9.59843
rfingers 7.12502
rthumb -7.27641 -20.2565
lclavicle 2.06736e-014 -3.49861e-014
lhumerus 26.039 -51.8168 89.3852
lradius 63.3901
lwrist -2.95304
lhand -14.2678 -307.812
lfingers 7.12502
lthumb 11.8709 -278.169
rfemur -59.9185 -30.0033 -4.99823
rtibia 55.6942
rfoot -8.9731 -2.01832
rtoes -38.7683
lfemur -40.8618 5.72518 -1.08925
ltibia 35.2433
lfoot -17.4821 -4.34595
ltoes -32.1271
